<svg width="40" height="60" viewBox="0 0 40 60" fill="none" xmlns="http://www.w3.org/2000/svg">
<path fill-rule="evenodd" clip-rule="evenodd" d="M12 2H28V5H12V2ZM10 5V2C10 0.89543 10.8954 0 12 0H28C29.1046 0 30 0.895431 30 2V5H34C37.3137 5 40 7.68629 40 11V54C40 57.3137 37.3137 60 34 60H6C2.68629 60 0 57.3137 0 54V11C0 7.68629 2.68629 5 6 5H10ZM6 8.5H34C35.3807 8.5 36.5 9.61929 36.5 11V54C36.5 55.3807 35.3807 56.5 34 56.5H6C4.61929 56.5 3.5 55.3807 3.5 54V11C3.5 9.61929 4.61929 8.5 6 8.5ZM5 49C5 47.8954 5.89543 47 7 47H33C34.1046 47 35 47.8954 35 49V53C35 54.1046 34.1046 55 33 55H7C5.89543 55 5 54.1046 5 53V49Z" fill="white"/>
</svg>
