<svg width="40" height="60" viewBox="0 0 40 60" fill="none" xmlns="http://www.w3.org/2000/svg">
<path fill-rule="evenodd" clip-rule="evenodd" d="M28 2H12V5H28V2ZM10 2V5H6C2.68629 5 0 7.68629 0 11V54C0 57.3137 2.68629 60 6 60H34C37.3137 60 40 57.3137 40 54V11C40 7.68629 37.3137 5 34 5H30V2C30 0.895431 29.1046 0 28 0H12C10.8954 0 10 0.89543 10 2ZM34 8.5H6C4.61929 8.5 3.5 9.61929 3.5 11V54C3.5 55.3807 4.61929 56.5 6 56.5H34C35.3807 56.5 36.5 55.3807 36.5 54V11C36.5 9.61929 35.3807 8.5 34 8.5ZM7 47C5.89543 47 5 47.8954 5 49V53C5 54.1046 5.89543 55 7 55H33C34.1046 55 35 54.1046 35 53V49C35 47.8954 34.1046 47 33 47H7ZM7 38C5.89543 38 5 38.8954 5 40V44C5 45.1046 5.89543 46 7 46H33C34.1046 46 35 45.1046 35 44V40C35 38.8954 34.1046 38 33 38H7Z" fill="white"/>
</svg>
